<?xml version="1.0" encoding="UTF-8"?>
<!DOCTYPE svg PUBLIC "-//W3C//DTD SVG 1.1//EN" "http://www.w3.org/Graphics/SVG/1.1/DTD/svg11.dtd">
<svg xmlns="http://www.w3.org/2000/svg" version="1.1" width="512px" height="512px" style="shape-rendering:geometricPrecision; text-rendering:geometricPrecision; image-rendering:optimizeQuality; fill-rule:evenodd; clip-rule:evenodd" xmlns:xlink="http://www.w3.org/1999/xlink">
<g><path style="opacity:0.995" fill="#34ddff" d="M 240.5,60.5 C 240.5,70.5 240.5,80.5 240.5,90.5C 240.5,145.5 240.5,200.5 240.5,255.5C 160.167,255.5 79.8333,255.5 -0.5,255.5C -0.5,248.5 -0.5,241.5 -0.5,234.5C 9.44556,155.41 48.7789,95.9096 117.5,56C 153.136,36.924 191.136,28.2574 231.5,30C 235.667,31.5 238.5,34.3333 240,38.5C 240.5,45.8258 240.666,53.1591 240.5,60.5 Z"/></g>
<g><path style="opacity:0.994" fill="#e6f7ff" d="M 240.5,60.5 C 283.835,60.3333 327.168,60.5 370.5,61C 389,65.5 400.5,77 405,95.5C 405.5,103.827 405.666,112.16 405.5,120.5C 400.833,120.5 396.167,120.5 391.5,120.5C 386.167,120.5 380.833,120.5 375.5,120.5C 375.788,113.437 375.288,106.437 374,99.5C 372.167,96.3333 369.667,93.8333 366.5,92C 324.539,90.5278 282.539,90.0278 240.5,90.5C 240.5,80.5 240.5,70.5 240.5,60.5 Z"/></g>
<g><path style="opacity:1" fill="#e5f6ff" d="M 208.5,62.5 C 210.492,91.1474 211.159,120.147 210.5,149.5C 192.794,148.877 175.127,147.71 157.5,146C 153.728,145.594 150.061,144.761 146.5,143.5C 155.054,117.205 169.054,94.3718 188.5,75C 194.759,70.0446 201.426,65.8779 208.5,62.5 Z"/></g>
<g><path style="opacity:1" fill="#e4f6ff" d="M 144.5,76.5 C 145.376,76.3691 146.043,76.7025 146.5,77.5C 132.875,96.3522 122.875,117.019 116.5,139.5C 103.729,137.579 91.0623,135.079 78.5,132C 77.09,131.632 76.09,130.799 75.5,129.5C 94.7659,106.892 117.766,89.2253 144.5,76.5 Z"/></g>
<g><path style="opacity:0.998" fill="#4d6d8c" d="M 375.5,120.5 C 380.833,120.5 386.167,120.5 391.5,120.5C 390.506,165.428 390.172,210.428 390.5,255.5C 355.76,255.174 321.094,255.507 286.5,256.5C 283.227,253.753 279.727,251.086 276,248.5C 274.08,245.661 272.413,242.661 271,239.5C 270.333,205.167 270.333,170.833 271,136.5C 273.526,128.641 278.693,123.474 286.5,121C 316.165,120.5 345.831,120.333 375.5,120.5 Z"/></g>
<g><path style="opacity:1" fill="#e5f6ff" d="M 55.5,157.5 C 68.8129,160.661 82.1463,163.828 95.5,167C 99.466,167.828 103.466,168.328 107.5,168.5C 102.255,192.212 99.2555,216.212 98.5,240.5C 75.8333,240.5 53.1667,240.5 30.5,240.5C 32.5876,210.908 40.9209,183.241 55.5,157.5 Z"/></g>
<g><path style="opacity:1" fill="#7ffca9" d="M 329.5,173.5 C 343.995,171.833 350.828,178.167 350,192.5C 345.957,201.413 339.124,204.58 329.5,202C 320.643,196.429 318.476,188.929 323,179.5C 325.063,177.266 327.229,175.266 329.5,173.5 Z"/></g>
<g><path style="opacity:1" fill="#e5f6ff" d="M 137.5,174.5 C 161.768,177.096 186.102,178.762 210.5,179.5C 210.5,199.833 210.5,220.167 210.5,240.5C 183.5,240.5 156.5,240.5 129.5,240.5C 129.454,218.155 132.121,196.155 137.5,174.5 Z"/></g>
<g><path style="opacity:0.996" fill="#33bbff" d="M -0.5,255.5 C 79.8333,255.5 160.167,255.5 240.5,255.5C 240.5,310.5 240.5,365.5 240.5,420.5C 240.5,430.5 240.5,440.5 240.5,450.5C 240.666,457.841 240.5,465.174 240,472.5C 238.5,476.667 235.667,479.5 231.5,481C 151.958,481.977 88.4575,450.81 41,387.5C 17.5785,354.067 3.74514,317.067 -0.5,276.5C -0.5,269.5 -0.5,262.5 -0.5,255.5 Z"/></g>
<g><path style="opacity:0.998" fill="#274865" d="M 391.5,120.5 C 396.167,120.5 400.833,120.5 405.5,120.5C 435.502,120.333 465.502,120.5 495.5,121C 503.376,123.711 508.709,128.878 511.5,136.5C 511.5,170.833 511.5,205.167 511.5,239.5C 509.692,242.436 507.859,245.436 506,248.5C 502.692,251.229 499.192,253.562 495.5,255.5C 460.833,255.5 426.167,255.5 391.5,255.5C 391.5,300.5 391.5,345.5 391.5,390.5C 386.167,390.5 380.833,390.5 375.5,390.5C 345.831,390.667 316.165,390.5 286.5,390C 278.667,387.5 273.5,382.333 271,374.5C 270.333,340.167 270.333,305.833 271,271.5C 273.44,263.558 278.607,258.558 286.5,256.5C 321.094,255.507 355.76,255.174 390.5,255.5C 390.172,210.428 390.506,165.428 391.5,120.5 Z"/></g>
<g><path style="opacity:0.998" fill="#0f283f" d="M 495.5,255.5 C 498.436,257.308 501.436,259.141 504.5,261C 507.512,264.154 509.845,267.654 511.5,271.5C 511.5,305.833 511.5,340.167 511.5,374.5C 509.562,378.192 507.229,381.692 504.5,385C 501.661,386.92 498.661,388.587 495.5,390C 465.502,390.5 435.502,390.667 405.5,390.5C 400.833,390.5 396.167,390.5 391.5,390.5C 391.5,345.5 391.5,300.5 391.5,255.5C 426.167,255.5 460.833,255.5 495.5,255.5 Z"/></g>
<g><path style="opacity:1" fill="#b2e4ff" d="M 30.5,270.5 C 53.1667,270.5 75.8333,270.5 98.5,270.5C 99.8933,294.707 102.893,318.707 107.5,342.5C 89.9749,345.384 72.6415,348.884 55.5,353C 41.0458,327.349 32.7125,299.849 30.5,270.5 Z"/></g>
<g><path style="opacity:1" fill="#b2e4ff" d="M 129.5,270.5 C 156.5,270.5 183.5,270.5 210.5,270.5C 210.5,290.833 210.5,311.167 210.5,331.5C 186.084,332.173 161.751,333.839 137.5,336.5C 132.565,314.766 129.899,292.766 129.5,270.5 Z"/></g>
<g><path style="opacity:1" fill="#2ee3a7" d="M 329.5,308.5 C 346.743,307.558 352.91,315.225 348,331.5C 343.071,337.118 336.905,338.951 329.5,337C 320.643,331.429 318.476,323.929 323,314.5C 325.063,312.266 327.229,310.266 329.5,308.5 Z"/></g>
<g><path style="opacity:1" fill="#b2e4ff" d="M 193.5,361.5 C 199.167,361.5 204.833,361.5 210.5,361.5C 210.833,390.508 210.5,419.508 209.5,448.5C 195.353,442.167 183.52,432.834 174,420.5C 162.222,404.28 153.055,386.613 146.5,367.5C 162.18,364.749 177.847,362.749 193.5,361.5 Z"/></g>
<g><path style="opacity:1" fill="#b1e4ff" d="M 110.5,371.5 C 112.604,371.201 114.604,371.534 116.5,372.5C 123.421,394.008 133.255,414.008 146,432.5C 146.688,433.332 146.521,433.998 145.5,434.5C 117.784,421.778 94.1169,403.778 74.5,380.5C 86.5168,377.063 98.5168,374.063 110.5,371.5 Z"/></g>
<g><path style="opacity:0.994" fill="#b3e5ff" d="M 375.5,390.5 C 380.833,390.5 386.167,390.5 391.5,390.5C 396.167,390.5 400.833,390.5 405.5,390.5C 409.503,411.663 403.503,429.163 387.5,443C 382.196,446.15 376.529,448.483 370.5,450C 327.168,450.5 283.835,450.667 240.5,450.5C 240.5,440.5 240.5,430.5 240.5,420.5C 282.539,420.972 324.539,420.472 366.5,419C 369.667,417.167 372.167,414.667 374,411.5C 375.288,404.563 375.788,397.563 375.5,390.5 Z"/></g>
</svg>
